<?xml version="1.0" encoding="utf-8"?>
<!-- Generator: Adobe Illustrator 17.0.0, SVG Export Plug-In . SVG Version: 6.00 Build 0)  -->
<!DOCTYPE svg PUBLIC "-//W3C//DTD SVG 1.1//EN" "http://www.w3.org/Graphics/SVG/1.1/DTD/svg11.dtd">
<svg version="1.1" xmlns="http://www.w3.org/2000/svg" xmlns:xlink="http://www.w3.org/1999/xlink" x="0px" y="0px" width="300px"
	 height="300px" viewBox="0 0 300 300" enable-background="new 0 0 300 300" xml:space="preserve">
<g id="Capa_1">
	<g>
		<g>
			<rect x="54.03" y="197.142" fill="#FFFFFF" width="197.084" height="4.03"/>
			<rect x="191.057" y="193.917" fill="#FFFFFF" width="4.569" height="9.941"/>
			<rect x="43.046" y="194.352" fill="#FFFFFF" width="2.861" height="9.608"/>
			<rect x="48.502" y="194.352" fill="#FFFFFF" width="2.862" height="9.608"/>
		</g>
	</g>
	<g>
		<rect fill="#D10505" width="300" height="300"/>
	</g>
</g>
<g id="Capa_2">
	<g>
		<g>
			<g>
				<path fill="#E3F0F8" d="M190.579,20.969v125.516c0,0-28.167-36.178-48.923-39.132h-11.864V63.054l9.64-0.738
					C139.431,62.316,177.981,51.243,190.579,20.969z"/>
				<rect x="193.715" y="20.969" fill="#FFFFFF" width="7.346" height="125.516"/>
				<rect x="89.131" y="61.011" fill="#CB6858" width="34.079" height="49.449"/>
				<path fill="#FFFFFF" d="M84.137,64.522v40.38c0,0-12.631-4.68-12.631-20.189C71.506,69.202,84.137,64.522,84.137,64.522z"/>
				<path fill="#DB9D00" d="M201.061,67.154c0,0,18.216,0.082,18.216,16.572c0,16.493-18.216,18.542-18.216,18.542V67.154z"/>
				<path fill="#FFFFFF" d="M228.971,105.179c0.725,0,1.453-0.272,2.021-0.809c6.92-6.593,10.243-13.602,9.884-20.83
					c-0.554-11.108-9.717-18.373-10.105-18.678c-1.271-0.99-3.109-0.769-4.105,0.499c-0.992,1.264-0.771,3.089,0.496,4.08
					c0.08,0.068,7.482,6,7.877,14.428c0.255,5.457-2.468,10.937-8.091,16.294c-1.167,1.11-1.206,2.951-0.091,4.116
					C227.434,104.878,228.202,105.179,228.971,105.179z"/>
				<path fill="#FFFFFF" d="M244.249,123.026c0.677,0,1.358-0.233,1.908-0.71c0.67-0.573,16.29-14.315,16.29-38.59
					c0-24.437-15.824-36.013-16.497-36.491c-1.312-0.936-3.14-0.641-4.08,0.669c-0.938,1.304-0.639,3.121,0.671,4.057
					c0.615,0.45,14.06,10.467,14.06,31.766c0,21.641-14.124,34.065-14.267,34.189c-1.223,1.051-1.356,2.89-0.298,4.106
					C242.612,122.685,243.427,123.026,244.249,123.026z"/>
				<path fill="#FFFFFF" d="M259.526,140.582c0.709,0,1.419-0.258,1.981-0.776c0.987-0.905,24.147-22.607,24.147-56.081
					c0-33.637-23.363-51.779-24.358-52.534c-1.284-0.975-3.119-0.732-4.097,0.55c-0.978,1.277-0.732,3.1,0.549,4.077
					c0.299,0.231,22.06,17.291,22.06,47.908c0,30.863-22.049,51.602-22.27,51.811c-1.183,1.093-1.252,2.932-0.159,4.11
					C257.956,140.27,258.74,140.582,259.526,140.582z"/>
			</g>
			<g>
				<g>
					<path fill="#5D92AC" d="M119.932,178.679l-0.076,1.593c0,0,1.824,8.919-7.281,8.756c-9.105-0.163-7.928-7.882-7.928-7.882
						l-0.059-0.495c4.544-0.41,9.288-1.084,13.538-1.787L119.932,178.679z"/>
					<path fill="#5D92AC" d="M101.696,122.158c0,0,3.697-1.677,2.991-12.961h18.523l-0.528,11.178l-16.906,1.725L101.696,122.158z"
						/>
				</g>
			</g>
			<path fill="#F1DCC0" d="M71.078,135.514c0,0,0.348-0.681,0.938-1.831c0.082-0.161,0.169-0.328,0.258-0.506
				c0.404-0.79,0.894-1.751,1.445-2.834c0.781-1.979,1.723-3.796,2.77-5.46c7.23-11.479,19.565-15.685,19.565-15.685h8.633
				c0.706,11.284-2.991,12.961-2.991,12.961l4.08-0.059l16.906-1.725l11.863-1.21c3.504-0.358,6.671,2.597,7.075,6.598
				c0.411,4.001-2.1,7.533-5.598,7.89l-8.598,0.874l0.04,0.319l10.838-1.107c4-0.405,7.578,2.51,7.982,6.506
				c0.404,4.001-2.504,7.578-6.506,7.989l-0.92,0.092c2.928,0.464,5.365,2.981,5.724,6.414c0.404,4-2.154,7.531-5.704,7.896
				l-2.258,0.231c2.233,0.822,4.027,3.266,4.339,6.353c0.404,4.003-1.783,7.499-4.896,7.817l-16.131,1.644l-1.807,0.185
				c-4.25,0.703-8.994,1.377-13.538,1.787c-2.78,0.251-5.487,0.405-7.96,0.405c-9.772,0-15.951-1.759-20.811-3.266
				c-2.627-0.815-4.871-1.555-7.087-1.903c-0.846,0.007-1.172-0.747-1.172-1.27v-37.711
				C67.557,135.08,71.078,136.047,71.078,135.514z"/>
			<g>
				<path fill="#D6E7E2" d="M65.809,156.033v-19.041c0-2.004-1.625-3.63-3.63-3.63H47.692c-2.004,0-3.63,1.626-3.63,3.63v19.041
					h4.944H65.809z"/>
				<path fill="#B7D6DE" d="M65.809,175.075v-19.042H49.006h-4.944v19.042c0,2.005,1.626,3.631,3.63,3.631h14.487
					C64.184,178.706,65.809,177.08,65.809,175.075z"/>
			</g>
			<circle fill="#003650" cx="46.062" cy="175.181" r="3.525"/>
		</g>
		<g>
			<path fill="#ACB82B" d="M0,181.341h55.473c1.342,0,2.432-1.577,2.432-3.524v-22.026H0V181.341z"/>
			<path fill="#CBD34D" d="M55.473,130.239H0v25.552h57.904v-22.027C57.904,131.818,56.815,130.239,55.473,130.239z"/>
		</g>
	</g>
	<g>
		<g>
			<path fill="#FFFFFF" d="M43.045,213.348h10.252l13.036,31.154H55.109l-1.635-4.154H42.648l-1.591,4.154H30.01L43.045,213.348z
				 M50.911,233.013l-2.828-7.512l-2.828,7.512H50.911z"/>
			<path fill="#FFFFFF" d="M71.546,222.319h-9.103v-8.749h28.547v8.749h-9.103v22.183h-10.34V222.319z"/>
			<path fill="#FFFFFF" d="M93.329,213.569h26.382v8.484h-16.218v3.137h15.113v7.469h-15.113v3.358h16.439v8.484H93.329V213.569z"/>
			<path fill="#FFFFFF" d="M122.714,213.569h9.678l11.003,13.655v-13.655h10.252v30.933h-9.192l-11.489-14.274v14.274h-10.252
				V213.569z"/>
			<path fill="#FFFFFF" d="M156.472,229.124v-0.088c0-9.236,7.203-16.129,16.438-16.129c6.806,0,11.402,3.314,14.009,8.043
				l-8.528,4.993c-1.15-2.209-2.784-3.757-5.612-3.757c-3.491,0-5.789,3.049-5.789,6.761v0.089c0,4.021,2.386,6.849,5.789,6.849
				c2.916,0,4.552-1.591,5.833-3.888l8.528,4.817c-2.607,4.596-6.938,8.352-14.627,8.352
				C163.94,245.165,156.472,238.713,156.472,229.124z"/>
			<path fill="#FFFFFF" d="M189.216,213.569h10.34v30.933h-10.34V213.569z"/>
			<path fill="#FFFFFF" d="M202.471,229.124v-0.088c0-8.97,7.38-16.129,16.925-16.129c9.545,0,16.836,7.07,16.836,16.04v0.089
				c0,8.97-7.38,16.129-16.925,16.129S202.471,238.095,202.471,229.124z M225.803,229.124v-0.088c0-3.668-2.518-6.982-6.496-6.982
				c-3.933,0-6.407,3.27-6.407,6.893v0.089c0,3.668,2.518,6.982,6.496,6.982C223.329,236.018,225.803,232.748,225.803,229.124z
				 M219.705,203.98l10.208,2.297l-7.07,5.082h-7.38L219.705,203.98z"/>
			<path fill="#FFFFFF" d="M239.058,213.569h9.678l11.003,13.655v-13.655h10.252v30.933h-9.191l-11.49-14.274v14.274h-10.252
				V213.569z"/>
		</g>
		<g>
			<path fill="#FFFFFF" d="M30.01,267.315v-0.075c0-7.879,6.145-13.76,14.024-13.76c5.805,0,9.726,2.828,11.95,6.862l-7.276,4.259
				c-0.98-1.885-2.375-3.204-4.788-3.204c-2.978,0-4.938,2.601-4.938,5.767v0.075c0,3.43,2.036,5.843,4.938,5.843
				c2.488,0,3.883-1.357,4.976-3.317l7.276,4.109C53.948,277.795,50.253,281,43.694,281C36.381,281,30.01,275.495,30.01,267.315z"/>
			<path fill="#FFFFFF" d="M57.943,254.046h8.821v26.388h-8.821V254.046z"/>
			<path fill="#FFFFFF" d="M69.629,268.597v-14.551h8.972v14.439c0,3.279,1.696,4.674,4.071,4.674s4.071-1.282,4.071-4.486v-14.627
				h8.972v14.362c0,9.01-5.24,12.554-13.119,12.554S69.629,277.343,69.629,268.597z"/>
			<path fill="#FFFFFF" d="M98.505,254.046h10.103c10.48,0,15.72,5.164,15.72,12.968v0.075c0,7.803-5.353,13.345-16.021,13.345
				h-9.801V254.046z M108.797,272.744c4.034,0,6.635-1.659,6.635-5.466v-0.076c0-3.807-2.601-5.466-6.635-5.466h-1.47v11.008
				H108.797z"/>
			<path fill="#FFFFFF" d="M134.054,253.858h8.745l11.121,26.576h-9.575l-1.395-3.544h-9.236l-1.357,3.544h-9.424L134.054,253.858z
				 M140.764,270.633l-2.413-6.409l-2.413,6.409H140.764z"/>
			<path fill="#FFFFFF" d="M155.013,254.046h10.103c10.48,0,15.72,5.164,15.72,12.968v0.075c0,7.803-5.352,13.345-16.021,13.345
				h-9.801V254.046z M165.304,272.744c4.034,0,6.635-1.659,6.635-5.466v-0.076c0-3.807-2.601-5.466-6.635-5.466h-1.47v11.008
				H165.304z"/>
			<path fill="#FFFFFF" d="M190.562,253.858h8.746l11.12,26.576h-9.574l-1.395-3.544h-9.236l-1.357,3.544h-9.424L190.562,253.858z
				 M197.272,270.633l-2.413-6.409l-2.413,6.409H197.272z"/>
			<path fill="#FFFFFF" d="M211.521,254.046h8.256l9.386,11.648v-11.648h8.746v26.388h-7.841l-9.801-12.177v12.177h-8.746V254.046z"
				/>
			<path fill="#FFFFFF" d="M250.123,253.858h8.746l11.121,26.576h-9.576l-1.394-3.544h-9.236l-1.357,3.544h-9.425L250.123,253.858z
				 M256.834,270.633l-2.413-6.409l-2.413,6.409H256.834z"/>
		</g>
	</g>
</g>
</svg>
