<?xml version="1.0" encoding="utf-8"?>
<!-- Generator: Adobe Illustrator 17.0.0, SVG Export Plug-In . SVG Version: 6.00 Build 0)  -->
<!DOCTYPE svg PUBLIC "-//W3C//DTD SVG 1.1//EN" "http://www.w3.org/Graphics/SVG/1.1/DTD/svg11.dtd">
<svg version="1.1" id="Capa_1" xmlns="http://www.w3.org/2000/svg" xmlns:xlink="http://www.w3.org/1999/xlink" x="0px" y="0px"
	 width="300px" height="90px" viewBox="0 0 300 90" enable-background="new 0 0 300 90" xml:space="preserve">
<g>
	<g>
		<g>
			<path fill="#C2C3C8" d="M68.494,11.442h12.357l16.125,23.693V11.442h12.474v42.825H96.977L80.939,30.753v23.514H68.494V11.442z"
				/>
		</g>
		<g>
			<path fill="#D7D8DC" d="M96.975,54.267V11.442h22.055c4.09,0,7.215,0.35,9.377,1.051c2.162,0.701,3.904,2.001,5.229,3.9
				c1.324,1.899,1.987,4.212,1.987,6.938c0,2.376-0.507,4.426-1.52,6.149c-1.013,1.724-2.407,3.121-4.18,4.192
				c-1.13,0.682-2.679,1.247-4.648,1.694c1.576,0.527,2.725,1.053,3.445,1.579c0.486,0.351,1.191,1.101,2.116,2.251
				c0.924,1.151,1.542,2.037,1.854,2.661l6.409,12.409h-14.953l-7.074-13.087c-0.896-1.694-1.694-2.794-2.395-3.301
				c-0.955-0.662-2.035-0.993-3.243-0.993h-1.169v17.382H96.975z M110.267,28.794h5.58c0.603,0,1.772-0.194,3.506-0.584
				c0.877-0.175,1.592-0.623,2.147-1.344c0.555-0.72,0.832-1.548,0.832-2.483c0-1.382-0.438-2.443-1.314-3.184
				c-0.877-0.74-2.523-1.11-4.937-1.11h-5.813V28.794z"/>
		</g>
	</g>
	<linearGradient id="SVGID_1_" gradientUnits="userSpaceOnUse" x1="66.5845" y1="66.6417" x2="144.0118" y2="66.6417">
		<stop  offset="0" style="stop-color:#93B534"/>
		<stop  offset="0.4967" style="stop-color:#91B334"/>
		<stop  offset="0.6756" style="stop-color:#8AAC34"/>
		<stop  offset="0.8031" style="stop-color:#7FA134"/>
		<stop  offset="0.9055" style="stop-color:#6E9034"/>
		<stop  offset="0.9928" style="stop-color:#597A34"/>
		<stop  offset="1" style="stop-color:#577834"/>
	</linearGradient>
	<polygon fill="url(#SVGID_1_)" points="144.012,65.211 144.012,68.072 66.585,66.642 	"/>
	
		<linearGradient id="SVGID_2_" gradientUnits="userSpaceOnUse" x1="53.2286" y1="73.7279" x2="130.6559" y2="73.7279" gradientTransform="matrix(-1 0 0 -1 286.6441 140.3696)">
		<stop  offset="0" style="stop-color:#AA1D1A"/>
		<stop  offset="0.5201" style="stop-color:#A91E1A"/>
		<stop  offset="0.7075" style="stop-color:#A2211C"/>
		<stop  offset="0.841" style="stop-color:#96251F"/>
		<stop  offset="0.9482" style="stop-color:#852C23"/>
		<stop  offset="1" style="stop-color:#7A3125"/>
	</linearGradient>
	<polygon fill="url(#SVGID_2_)" points="155.988,68.072 155.988,65.211 233.415,66.642 	"/>
	<g>
		<g>
			<path fill="#626266" d="M69.317,86.793V75.877h2.601l2.045,4.001c0.584,1.149,1.169,2.51,1.607,3.741h0.044
				c-0.146-1.441-0.19-2.915-0.19-4.551v-3.191h2.046v10.916h-2.338l-2.104-4.211c-0.584-1.166-1.227-2.575-1.709-3.855
				l-0.044,0.017c0.058,1.441,0.087,2.98,0.087,4.762v3.287H69.317z"/>
			<path fill="#626266" d="M81.667,76.671c0,0.68-0.467,1.231-1.198,1.231c-0.702,0-1.17-0.551-1.155-1.231
				c-0.015-0.713,0.453-1.247,1.169-1.247C81.2,75.424,81.653,75.958,81.667,76.671z M79.374,86.793v-7.92h2.221v7.92H79.374z"/>
			<path fill="#626266" d="M88.742,86.599c-0.395,0.194-1.14,0.356-1.988,0.356c-2.309,0-3.784-1.555-3.784-4.049
				c0-2.317,1.432-4.211,4.091-4.211c0.584,0,1.227,0.113,1.695,0.307l-0.351,1.831c-0.263-0.13-0.658-0.244-1.242-0.244
				c-1.169,0-1.929,0.924-1.914,2.219c0,1.458,0.877,2.219,1.958,2.219c0.526,0,0.935-0.098,1.271-0.243L88.742,86.599z"/>
			<path fill="#626266" d="M96.869,82.744c0,2.899-1.856,4.227-3.77,4.227c-2.089,0-3.697-1.522-3.697-4.081
				s1.519-4.195,3.814-4.195C95.407,78.695,96.869,80.364,96.869,82.744z M91.696,82.825c0,1.361,0.511,2.381,1.461,2.381
				c0.862,0,1.417-0.956,1.417-2.381c0-1.182-0.409-2.38-1.417-2.38C92.091,80.445,91.696,81.659,91.696,82.825z"/>
			<path fill="#626266" d="M98.245,75.293h2.221v11.5h-2.221V75.293z"/>
			<path fill="#626266" d="M106.326,86.793L106.195,86h-0.044c-0.468,0.632-1.198,0.971-2.046,0.971
				c-1.446,0-2.309-1.166-2.309-2.429c0-2.057,1.667-3.045,4.194-3.029V81.4c0-0.422-0.205-1.021-1.3-1.021
				c-0.731,0-1.506,0.275-1.973,0.599l-0.409-1.587c0.497-0.308,1.476-0.696,2.777-0.696c2.381,0,3.141,1.555,3.141,3.418v2.753
				c0,0.761,0.029,1.49,0.102,1.927H106.326z M106.064,83.052c-1.17-0.016-2.075,0.291-2.075,1.247c0,0.632,0.38,0.94,0.877,0.94
				c0.556,0,1.009-0.405,1.155-0.907c0.029-0.129,0.044-0.275,0.044-0.421V83.052z M107.539,75.424l-1.783,2.461h-1.534l1.257-2.461
				H107.539z"/>
			<path fill="#626266" d="M109.968,84.639c0.409,0.275,1.257,0.599,1.914,0.599c0.673,0,0.95-0.259,0.95-0.664
				c0-0.405-0.22-0.599-1.052-0.906c-1.476-0.551-2.045-1.442-2.03-2.381c0-1.474,1.139-2.591,2.908-2.591
				c0.833,0,1.578,0.21,2.016,0.453l-0.395,1.701c-0.322-0.194-0.935-0.453-1.549-0.453c-0.541,0-0.848,0.243-0.848,0.648
				c0,0.372,0.278,0.567,1.155,0.907c1.359,0.518,1.929,1.279,1.943,2.445c0,1.474-1.051,2.559-3.098,2.559
				c-0.935,0-1.768-0.227-2.309-0.551L109.968,84.639z"/>
		</g>
		<g>
			<path fill="#626266" d="M119.957,76.023c0.643-0.146,1.564-0.227,2.44-0.227c1.359,0,2.235,0.275,2.849,0.891
				c0.497,0.486,0.774,1.231,0.774,2.073c0,1.441-0.818,2.397-1.855,2.785v0.049c0.759,0.291,1.212,1.068,1.447,2.202
				c0.321,1.522,0.555,2.575,0.759,2.996h-1.315c-0.161-0.308-0.38-1.247-0.658-2.607c-0.292-1.506-0.818-2.073-1.973-2.122h-1.198
				v4.73h-1.272V76.023z M121.228,80.995h1.3c1.359,0,2.221-0.826,2.221-2.073c0-1.41-0.92-2.025-2.265-2.041
				c-0.613,0-1.052,0.064-1.256,0.129V80.995z"/>
			<path fill="#626266" d="M134.236,82.809c0,2.899-1.812,4.162-3.521,4.162c-1.914,0-3.39-1.555-3.39-4.033
				c0-2.624,1.548-4.162,3.506-4.162C132.862,78.776,134.236,80.412,134.236,82.809z M128.625,82.89
				c0,1.717,0.891,3.013,2.148,3.013c1.227,0,2.148-1.279,2.148-3.045c0-1.328-0.599-3.012-2.119-3.012S128.625,81.4,128.625,82.89z
				"/>
			<path fill="#626266" d="M135.86,81.076c0-0.81-0.014-1.474-0.058-2.122h1.125l0.058,1.263h0.045
				c0.395-0.745,1.051-1.441,2.22-1.441c0.965,0,1.695,0.648,2.002,1.571h0.029c0.22-0.437,0.497-0.777,0.789-1.02
				c0.424-0.356,0.891-0.551,1.563-0.551c0.935,0,2.323,0.68,2.323,3.401v4.616h-1.256v-4.438c0-1.506-0.497-2.414-1.534-2.414
				c-0.73,0-1.301,0.599-1.519,1.296c-0.059,0.194-0.102,0.453-0.102,0.713v4.842h-1.257v-4.697c0-1.247-0.497-2.154-1.476-2.154
				c-0.803,0-1.387,0.713-1.592,1.426c-0.074,0.21-0.102,0.453-0.102,0.696v4.73h-1.257V81.076z"/>
			<path fill="#626266" d="M148.768,83.133c0.029,1.928,1.14,2.721,2.425,2.721c0.92,0,1.476-0.178,1.958-0.405l0.219,1.021
				c-0.453,0.227-1.227,0.486-2.352,0.486c-2.177,0-3.477-1.587-3.477-3.952c0-2.364,1.256-4.227,3.316-4.227
				c2.308,0,2.922,2.251,2.922,3.693c0,0.291-0.029,0.518-0.044,0.663H148.768z M152.537,82.113
				c0.015-0.907-0.336-2.316-1.782-2.316c-1.3,0-1.87,1.328-1.973,2.316H152.537z"/>
			<path fill="#626266" d="M155.374,81.4c0-0.923-0.014-1.717-0.058-2.445h1.125l0.044,1.538h0.059
				c0.321-1.052,1.095-1.717,1.958-1.717c0.146,0,0.248,0.017,0.365,0.048v1.345c-0.131-0.033-0.262-0.048-0.438-0.048
				c-0.905,0-1.548,0.761-1.724,1.83c-0.029,0.194-0.058,0.421-0.058,0.663v4.179h-1.272V81.4z"/>
			<path fill="#626266" d="M166.408,82.809c0,2.899-1.812,4.162-3.521,4.162c-1.914,0-3.39-1.555-3.39-4.033
				c0-2.624,1.548-4.162,3.506-4.162C165.034,78.776,166.408,80.412,166.408,82.809z M160.797,82.89
				c0,1.717,0.891,3.013,2.148,3.013c1.227,0,2.148-1.279,2.148-3.045c0-1.328-0.599-3.012-2.119-3.012S160.797,81.4,160.797,82.89z
				"/>
		</g>
		<g>
			<path fill="#626266" d="M175.446,86.826v-0.712l0.822-0.884c1.976-2.083,2.87-3.191,2.882-4.483c0-0.871-0.382-1.675-1.536-1.675
				c-0.703,0-1.286,0.395-1.643,0.725l-0.333-0.817c0.535-0.502,1.297-0.871,2.19-0.871c1.667,0,2.37,1.266,2.37,2.493
				c0,1.582-1.037,2.861-2.668,4.602l-0.619,0.633v0.026h3.477v0.963H175.446z"/>
			<path fill="#626266" d="M186.697,82.448c0,2.914-0.976,4.523-2.691,4.523c-1.512,0-2.537-1.57-2.56-4.405
				c0-2.874,1.119-4.457,2.691-4.457C185.768,78.109,186.697,79.718,186.697,82.448z M182.494,82.58
				c0,2.229,0.619,3.494,1.572,3.494c1.072,0,1.584-1.385,1.584-3.573c0-2.11-0.488-3.495-1.572-3.495
				C183.16,79.006,182.494,80.245,182.494,82.58z"/>
			<path fill="#626266" d="M189.934,79.335h-0.024l-1.345,0.805l-0.202-0.884l1.691-1.002h0.893v8.572h-1.012V79.335z"/>
			<path fill="#626266" d="M198.184,79.072c-0.214-0.013-0.488,0-0.785,0.053c-1.643,0.303-2.512,1.635-2.691,3.045h0.035
				c0.369-0.541,1.012-0.989,1.869-0.989c1.37,0,2.335,1.095,2.335,2.77c0,1.569-0.965,3.019-2.573,3.019
				c-1.654,0-2.738-1.425-2.738-3.653c0-1.688,0.548-3.019,1.31-3.863c0.643-0.699,1.5-1.134,2.477-1.266
				c0.309-0.052,0.571-0.065,0.761-0.065V79.072z M197.887,84.017c0-1.226-0.632-1.964-1.596-1.964
				c-0.631,0-1.214,0.435-1.501,1.055c-0.071,0.131-0.119,0.302-0.119,0.514c0.024,1.412,0.608,2.453,1.703,2.453
				C197.279,86.074,197.887,85.243,197.887,84.017z"/>
			<path fill="#626266" d="M205.16,82.83v0.857h-2.941V82.83H205.16z"/>
			<path fill="#626266" d="M208.576,86.826v-0.712l0.822-0.884c1.976-2.083,2.87-3.191,2.882-4.483c0-0.871-0.382-1.675-1.536-1.675
				c-0.703,0-1.286,0.395-1.643,0.725l-0.333-0.817c0.535-0.502,1.297-0.871,2.19-0.871c1.667,0,2.37,1.266,2.37,2.493
				c0,1.582-1.037,2.861-2.668,4.602l-0.619,0.633v0.026h3.477v0.963H208.576z"/>
			<path fill="#626266" d="M219.826,82.448c0,2.914-0.976,4.523-2.691,4.523c-1.512,0-2.537-1.57-2.56-4.405
				c0-2.874,1.119-4.457,2.691-4.457C218.897,78.109,219.826,79.718,219.826,82.448z M215.623,82.58
				c0,2.229,0.619,3.494,1.572,3.494c1.072,0,1.584-1.385,1.584-3.573c0-2.11-0.489-3.495-1.572-3.495
				C216.289,79.006,215.623,80.245,215.623,82.58z"/>
			<path fill="#626266" d="M223.063,79.335h-0.024l-1.345,0.805l-0.202-0.884l1.691-1.002h0.893v8.572h-1.012V79.335z"/>
			<path fill="#626266" d="M226.8,84.65c0-1.081,0.584-1.846,1.536-2.295l-0.012-0.04c-0.857-0.448-1.226-1.186-1.226-1.925
				c0-1.359,1.037-2.282,2.394-2.282c1.5,0,2.25,1.042,2.25,2.11c0,0.725-0.321,1.503-1.274,2.004v0.04
				c0.964,0.422,1.559,1.173,1.559,2.215c0,1.491-1.155,2.493-2.631,2.493C227.777,86.971,226.8,85.903,226.8,84.65z
				 M230.968,84.597c0-1.042-0.654-1.543-1.703-1.872c-0.904,0.289-1.393,0.949-1.393,1.767c-0.035,0.87,0.56,1.635,1.548,1.635
				C230.361,86.127,230.968,85.48,230.968,84.597z M228.087,80.312c0,0.857,0.583,1.319,1.476,1.583
				c0.667-0.251,1.179-0.778,1.179-1.557c0-0.685-0.368-1.398-1.309-1.398C228.562,78.94,228.087,79.573,228.087,80.312z"/>
		</g>
	</g>
	<g>
		<path fill="#5C5C60" d="M151.777,45.708l1.066,3.887c0.117,0.47,0.263,1.052,0.351,1.474h0.044
			c0.102-0.422,0.22-1.021,0.322-1.474l0.877-3.887h2.382l-1.667,5.215c-1.023,3.142-1.709,4.406-2.512,5.2
			c-0.775,0.744-1.593,1.004-2.148,1.085l-0.468-2.09c0.278-0.048,0.629-0.194,0.964-0.421c0.336-0.194,0.702-0.583,0.92-0.988
			c0.074-0.114,0.117-0.243,0.117-0.356c0-0.081-0.015-0.21-0.102-0.405l-2.616-7.24H151.777z"/>
		<path fill="#5C5C60" d="M160.781,42.858c0.716-0.13,1.783-0.227,2.966-0.227c1.461,0,2.484,0.243,3.185,0.858
			c0.585,0.518,0.906,1.28,0.906,2.284c0,1.393-0.891,2.349-1.739,2.688v0.049c0.687,0.307,1.067,1.037,1.316,2.041
			c0.306,1.231,0.613,2.656,0.803,3.077h-2.279c-0.161-0.308-0.395-1.198-0.687-2.543c-0.263-1.36-0.687-1.733-1.593-1.749h-0.672
			v4.292h-2.207V42.858z M162.989,47.555h0.877c1.11,0,1.768-0.616,1.768-1.572c0-1.004-0.614-1.506-1.637-1.522
			c-0.541,0-0.848,0.049-1.008,0.081V47.555z"/>
		<path fill="#5C5C60" d="M171.087,50.453c0.074,1.021,0.979,1.506,2.016,1.506c0.76,0,1.373-0.114,1.973-0.324l0.292,1.668
			c-0.73,0.324-1.622,0.486-2.586,0.486c-2.426,0-3.814-1.555-3.814-4.033c0-2.008,1.125-4.227,3.609-4.227
			c2.309,0,3.185,1.992,3.185,3.952c0,0.422-0.044,0.794-0.073,0.971H171.087z M173.702,48.769c0-0.599-0.234-1.603-1.256-1.603
			c-0.935,0-1.316,0.939-1.374,1.603H173.702z"/>
		<path fill="#5C5C60" d="M177.081,51.474c0.409,0.275,1.257,0.599,1.914,0.599c0.673,0,0.95-0.259,0.95-0.664
			c0-0.405-0.22-0.599-1.052-0.906c-1.476-0.551-2.045-1.442-2.03-2.381c0-1.474,1.139-2.591,2.908-2.591
			c0.833,0,1.578,0.21,2.016,0.453l-0.395,1.701c-0.322-0.194-0.935-0.453-1.549-0.453c-0.541,0-0.848,0.243-0.848,0.648
			c0,0.372,0.278,0.567,1.155,0.907c1.359,0.518,1.929,1.279,1.943,2.445c0,1.474-1.051,2.559-3.098,2.559
			c-0.935,0-1.768-0.227-2.309-0.551L177.081,51.474z"/>
		<path fill="#5C5C60" d="M190.176,51.085c0,1.037,0.029,1.879,0.059,2.543h-1.929l-0.102-1.118h-0.044
			c-0.277,0.486-0.95,1.295-2.236,1.295c-1.446,0-2.513-1.004-2.513-3.449v-4.648h2.236v4.259c0,1.15,0.336,1.847,1.11,1.847
			c0.614,0,0.965-0.47,1.111-0.859c0.059-0.146,0.073-0.341,0.073-0.534v-4.713h2.236V51.085z"/>
		<path fill="#5C5C60" d="M191.961,42.128h2.221v11.499h-2.221V42.128z"/>
		<path fill="#5C5C60" d="M198.464,43.44v2.268h1.593v1.814h-1.593v2.867c0,0.956,0.205,1.393,0.877,1.393
			c0.277,0,0.497-0.033,0.657-0.065l0.015,1.863c-0.292,0.129-0.818,0.21-1.447,0.21c-0.716,0-1.315-0.275-1.666-0.68
			c-0.408-0.47-0.613-1.231-0.613-2.349v-3.239h-0.95v-1.814h0.95v-1.717L198.464,43.44z"/>
		<path fill="#5C5C60" d="M205.408,53.628l-0.131-0.794h-0.044c-0.468,0.632-1.198,0.971-2.046,0.971
			c-1.446,0-2.309-1.166-2.309-2.429c0-2.057,1.667-3.045,4.194-3.029v-0.114c0-0.422-0.205-1.021-1.3-1.021
			c-0.731,0-1.506,0.275-1.973,0.599l-0.409-1.587c0.497-0.308,1.476-0.696,2.777-0.696c2.381,0,3.141,1.555,3.141,3.418v2.753
			c0,0.761,0.029,1.49,0.102,1.927H205.408z M205.145,49.886c-1.17-0.016-2.075,0.291-2.075,1.247c0,0.632,0.38,0.94,0.877,0.94
			c0.555,0,1.009-0.405,1.155-0.907c0.029-0.129,0.044-0.275,0.044-0.421V49.886z"/>
		<path fill="#5C5C60" d="M215.989,42.128v9.135c0,0.89,0.03,1.83,0.059,2.364h-1.973l-0.102-1.166h-0.029
			c-0.453,0.89-1.316,1.344-2.236,1.344c-1.694,0-3.054-1.603-3.054-4.064c-0.015-2.673,1.491-4.211,3.2-4.211
			c0.877,0,1.563,0.34,1.885,0.89h0.029v-4.292H215.989z M213.768,49.06c0-0.129-0.014-0.307-0.029-0.437
			c-0.131-0.663-0.614-1.214-1.301-1.214c-1.008,0-1.534,1.004-1.534,2.251c0,1.345,0.599,2.187,1.52,2.187
			c0.643,0,1.154-0.486,1.285-1.182c0.045-0.179,0.059-0.356,0.059-0.568V49.06z"/>
		<path fill="#5C5C60" d="M224.833,49.578c0,2.899-1.856,4.227-3.77,4.227c-2.089,0-3.697-1.522-3.697-4.081
			s1.519-4.195,3.814-4.195C223.372,45.53,224.833,47.198,224.833,49.578z M219.661,49.659c0,1.361,0.511,2.381,1.461,2.381
			c0.862,0,1.417-0.956,1.417-2.381c0-1.182-0.409-2.38-1.417-2.38C220.055,47.279,219.661,48.493,219.661,49.659z"/>
		<path fill="#5C5C60" d="M226.196,51.474c0.409,0.275,1.257,0.599,1.914,0.599c0.673,0,0.95-0.259,0.95-0.664
			c0-0.405-0.22-0.599-1.052-0.906c-1.476-0.551-2.045-1.442-2.03-2.381c0-1.474,1.139-2.591,2.908-2.591
			c0.833,0,1.578,0.21,2.016,0.453l-0.395,1.701c-0.322-0.194-0.935-0.453-1.549-0.453c-0.541,0-0.848,0.243-0.848,0.648
			c0,0.372,0.278,0.567,1.155,0.907c1.359,0.518,1.929,1.279,1.943,2.445c0,1.474-1.051,2.559-3.098,2.559
			c-0.935,0-1.768-0.227-2.309-0.551L226.196,51.474z"/>
	</g>
	<g>
		<path fill="#5C5C60" d="M156.642,25.727v9.135c0,0.89,0.03,1.83,0.059,2.364h-1.973l-0.102-1.166h-0.029
			c-0.453,0.89-1.316,1.344-2.236,1.344c-1.694,0-3.053-1.603-3.053-4.064c-0.014-2.673,1.491-4.211,3.199-4.211
			c0.877,0,1.563,0.34,1.885,0.89h0.029v-4.292H156.642z M154.421,32.658c0-0.129-0.014-0.307-0.029-0.437
			c-0.131-0.663-0.614-1.214-1.301-1.214c-1.008,0-1.534,1.004-1.534,2.251c0,1.345,0.599,2.187,1.52,2.187
			c0.643,0,1.154-0.486,1.285-1.182c0.045-0.179,0.059-0.356,0.059-0.568V32.658z"/>
		<path fill="#5C5C60" d="M160.138,34.051c0.074,1.021,0.979,1.506,2.016,1.506c0.76,0,1.373-0.114,1.973-0.324l0.292,1.668
			c-0.73,0.324-1.622,0.486-2.586,0.486c-2.426,0-3.814-1.555-3.814-4.033c0-2.008,1.125-4.227,3.609-4.227
			c2.309,0,3.185,1.992,3.185,3.952c0,0.422-0.044,0.794-0.073,0.971H160.138z M162.754,32.367c0-0.599-0.234-1.603-1.256-1.603
			c-0.935,0-1.316,0.939-1.374,1.603H162.754z"/>
		<path fill="#5C5C60" d="M170.502,28.383h-2.644V26.31h7.569v2.073h-2.689v8.843h-2.235V28.383z"/>
		<path fill="#5C5C60" d="M175.751,31.914c0-1.167-0.03-1.928-0.059-2.608h1.914l0.074,1.458h0.059
			c0.365-1.15,1.241-1.636,1.928-1.636c0.205,0,0.307,0,0.468,0.032v2.316c-0.161-0.033-0.351-0.065-0.599-0.065
			c-0.818,0-1.373,0.486-1.519,1.247c-0.03,0.162-0.044,0.356-0.044,0.551v4.017h-2.221V31.914z"/>
		<path fill="#5C5C60" d="M185.206,37.226l-0.131-0.794h-0.044c-0.468,0.632-1.198,0.971-2.046,0.971
			c-1.446,0-2.309-1.166-2.309-2.429c0-2.057,1.667-3.045,4.194-3.029v-0.114c0-0.422-0.205-1.021-1.3-1.021
			c-0.731,0-1.506,0.275-1.973,0.599l-0.409-1.587c0.497-0.308,1.476-0.696,2.777-0.696c2.381,0,3.141,1.555,3.141,3.418v2.753
			c0,0.761,0.029,1.49,0.102,1.927H185.206z M184.944,33.485c-1.17-0.016-2.075,0.291-2.075,1.247c0,0.632,0.38,0.94,0.877,0.94
			c0.555,0,1.009-0.405,1.155-0.907c0.029-0.129,0.044-0.275,0.044-0.421V33.485z"/>
		<path fill="#5C5C60" d="M188.805,37.226c0.029-0.518,0.059-1.474,0.059-2.364v-9.135h2.221v4.519h0.029
			c0.424-0.68,1.169-1.118,2.162-1.118c1.709,0,2.966,1.571,2.952,4c0,2.851-1.636,4.276-3.273,4.276
			c-0.833,0-1.637-0.34-2.148-1.279h-0.029l-0.087,1.102H188.805z M191.084,33.857c0,0.163,0.014,0.308,0.044,0.437
			c0.146,0.664,0.658,1.167,1.3,1.167c0.95,0,1.534-0.81,1.534-2.235c0-1.231-0.497-2.203-1.534-2.203
			c-0.598,0-1.154,0.502-1.3,1.215c-0.03,0.146-0.044,0.291-0.044,0.453V33.857z"/>
		<path fill="#5C5C60" d="M201.666,37.226l-0.131-0.794h-0.044c-0.468,0.632-1.198,0.971-2.046,0.971
			c-1.446,0-2.309-1.166-2.309-2.429c0-2.057,1.667-3.045,4.194-3.029v-0.114c0-0.422-0.205-1.021-1.3-1.021
			c-0.731,0-1.506,0.275-1.973,0.599l-0.409-1.587c0.497-0.308,1.476-0.696,2.777-0.696c2.381,0,3.141,1.555,3.141,3.418v2.753
			c0,0.761,0.029,1.49,0.102,1.927H201.666z M201.403,33.485c-1.17-0.016-2.075,0.291-2.075,1.247c0,0.632,0.38,0.94,0.877,0.94
			c0.556,0,1.009-0.405,1.155-0.907c0.029-0.129,0.044-0.275,0.044-0.421V33.485z"/>
		<path fill="#5C5C60" d="M203.847,38.684c0.584-0.049,1.037-0.194,1.315-0.518c0.322-0.373,0.438-1.005,0.438-2.576v-6.284h2.236
			v6.867c0,1.733-0.351,2.785-1.009,3.466c-0.657,0.68-1.694,0.971-2.762,0.971L203.847,38.684z M207.894,27.103
			c0,0.68-0.453,1.231-1.198,1.231c-0.702,0-1.155-0.551-1.155-1.231c0-0.713,0.453-1.247,1.184-1.247
			C207.441,25.857,207.88,26.391,207.894,27.103z"/>
		<path fill="#5C5C60" d="M216.634,33.177c0,2.899-1.856,4.227-3.77,4.227c-2.089,0-3.697-1.522-3.697-4.081s1.52-4.195,3.814-4.195
			C215.172,29.128,216.634,30.797,216.634,33.177z M211.461,33.258c0,1.361,0.511,2.381,1.461,2.381
			c0.862,0,1.417-0.956,1.417-2.381c0-1.182-0.409-2.38-1.417-2.38C211.856,30.877,211.461,32.092,211.461,33.258z"/>
	</g>
	<g>
		<linearGradient id="SVGID_3_" gradientUnits="userSpaceOnUse" x1="89.5229" y1="11.2413" x2="118.5152" y2="11.2413">
			<stop  offset="0" style="stop-color:#577834"/>
			<stop  offset="0.1542" style="stop-color:#668734"/>
			<stop  offset="0.4755" style="stop-color:#7FA034"/>
			<stop  offset="0.7669" style="stop-color:#8EB034"/>
			<stop  offset="1" style="stop-color:#93B534"/>
		</linearGradient>
		<path fill-rule="evenodd" clip-rule="evenodd" fill="url(#SVGID_3_)" d="M101.816,3.774c2.251-0.143,3.345,1.669,2.322,4.052
			c-1.024,2.383-3.69,4.229-5.834,4.125c-2.025-0.098-2.833-1.913-1.913-4.056C97.311,5.753,99.69,3.91,101.816,3.774L101.816,3.774
			z M89.602,6.912c-0.428,6.679,0.716,12.593,7.867,12.541c7.663-0.054,13.379-5.541,19.546-14.212
			c0.639-0.901,1.867-2.539,1.395-2.156c-0.566,0.457-3.504,3.128-7.847,6.228c-3.887,2.777-8.747,4.413-12.155,4.624
			c-2.379,0.143-4.373-0.36-6.056-1.609C90.242,10.761,89.985,8.415,89.602,6.912L89.602,6.912z"/>
		<linearGradient id="SVGID_4_" gradientUnits="userSpaceOnUse" x1="74.2201" y1="46.3777" x2="105.4515" y2="46.3777">
			<stop  offset="0" style="stop-color:#577834"/>
			<stop  offset="0.1542" style="stop-color:#668734"/>
			<stop  offset="0.4755" style="stop-color:#7FA034"/>
			<stop  offset="0.7669" style="stop-color:#8EB034"/>
			<stop  offset="1" style="stop-color:#93B534"/>
		</linearGradient>
		<path fill-rule="evenodd" clip-rule="evenodd" fill="url(#SVGID_4_)" d="M85.586,52.694c-2.404-0.939-3.51-3.932-2.595-6.729
			c0.916-2.797,3.585-4.579,6.089-3.944c2.66,0.674,4.104,3.775,3.086,6.886C91.148,52.018,88.14,53.691,85.586,52.694
			L85.586,52.694z M105.124,59.222c1.422-12.315-1.688-22.284-11.207-25.053c-7.523-2.19-12.829,1.434-18.411,8.507
			c-0.544,0.692-1.554,1.902-1.219,1.697c0.406-0.246,2.665-1.899,6.136-3.604c3.465-1.704,8.051-1.782,11.608-0.562
			c2.789,0.964,5.268,2.806,7.45,5.851C102.541,50.335,104.59,55.854,105.124,59.222L105.124,59.222z"/>
		<g>
			<linearGradient id="SVGID_5_" gradientUnits="userSpaceOnUse" x1="75.3467" y1="20.9759" x2="88.8898" y2="20.9759">
				<stop  offset="0" style="stop-color:#7A3125"/>
				<stop  offset="0.0295" style="stop-color:#7C3025"/>
				<stop  offset="0.3981" style="stop-color:#96261F"/>
				<stop  offset="0.7325" style="stop-color:#A51F1B"/>
				<stop  offset="1" style="stop-color:#AA1D1A"/>
			</linearGradient>
			<path fill-rule="evenodd" clip-rule="evenodd" fill="url(#SVGID_5_)" d="M87.265,9.171c0,0-0.156,17.682-11.918,23.057
				c0,0,4.119,2.2,7.867-2.181C83.214,30.047,92.562,19.999,87.265,9.171z"/>
			<linearGradient id="SVGID_6_" gradientUnits="userSpaceOnUse" x1="79.713" y1="22.0094" x2="84.2943" y2="22.0094">
				<stop  offset="0" style="stop-color:#7A3125"/>
				<stop  offset="0.0295" style="stop-color:#7C3025"/>
				<stop  offset="0.3981" style="stop-color:#96261F"/>
				<stop  offset="0.7325" style="stop-color:#A51F1B"/>
				<stop  offset="1" style="stop-color:#AA1D1A"/>
			</linearGradient>
			<path fill-rule="evenodd" clip-rule="evenodd" fill="url(#SVGID_6_)" d="M80.514,21.354c-0.961,2.185-1.073,4.249-0.251,4.611
				c0.823,0.362,2.269-1.116,3.23-3.3c0.961-2.185,1.073-4.249,0.251-4.611C82.921,17.692,81.475,19.169,80.514,21.354z"/>
		</g>
		<g>
			<linearGradient id="SVGID_7_" gradientUnits="userSpaceOnUse" x1="112.8312" y1="29.7789" x2="125.1668" y2="29.7789">
				<stop  offset="0" style="stop-color:#7A3125"/>
				<stop  offset="0.0295" style="stop-color:#7C3025"/>
				<stop  offset="0.3981" style="stop-color:#96261F"/>
				<stop  offset="0.7325" style="stop-color:#A51F1B"/>
				<stop  offset="1" style="stop-color:#AA1D1A"/>
			</linearGradient>
			<path fill-rule="evenodd" clip-rule="evenodd" fill="url(#SVGID_7_)" d="M124.948,31.096c-0.896,4.047-4.286,6.739-7.572,6.011
				c-3.285-0.728-5.222-4.598-4.326-8.646s4.286-6.739,7.572-6.011C123.907,23.178,125.844,27.049,124.948,31.096z"/>
			<linearGradient id="SVGID_8_" gradientUnits="userSpaceOnUse" x1="103.0635" y1="31.886" x2="123.1679" y2="31.886">
				<stop  offset="0" style="stop-color:#7A3125"/>
				<stop  offset="0.0295" style="stop-color:#7C3025"/>
				<stop  offset="0.3981" style="stop-color:#96261F"/>
				<stop  offset="0.7325" style="stop-color:#A51F1B"/>
				<stop  offset="1" style="stop-color:#AA1D1A"/>
			</linearGradient>
			<path fill-rule="evenodd" clip-rule="evenodd" fill="url(#SVGID_8_)" d="M123.168,58.394
				c-44.757-25.485-0.811-53.017-0.811-53.017S94.617,31.12,123.168,58.394z"/>
		</g>
	</g>
	<g>
		<path fill="#5C5C60" d="M157.855,20.473c-0.667,0.24-1.986,0.633-3.544,0.633c-1.747,0-3.185-0.445-4.315-1.524
			c-0.993-0.959-1.609-2.5-1.609-4.298c0.017-3.441,2.38-5.959,6.249-5.959c1.336,0,2.38,0.291,2.877,0.531l-0.359,1.216
			c-0.616-0.274-1.387-0.497-2.551-0.497c-2.808,0-4.64,1.746-4.64,4.64c0,2.928,1.764,4.657,4.452,4.657
			c0.976,0,1.644-0.137,1.986-0.308v-3.442h-2.346v-1.199h3.801V20.473z"/>
		<path fill="#5C5C60" d="M161.007,17.117c0.035,2.038,1.336,2.877,2.843,2.877c1.079,0,1.729-0.189,2.295-0.428l0.256,1.079
			c-0.53,0.24-1.438,0.514-2.757,0.514c-2.551,0-4.075-1.678-4.075-4.178s1.472-4.469,3.886-4.469c2.706,0,3.424,2.38,3.424,3.904
			c0,0.308-0.034,0.548-0.051,0.702H161.007z M165.425,16.038c0.017-0.959-0.394-2.448-2.089-2.448
			c-1.524,0-2.192,1.404-2.311,2.448H165.425z"/>
		<path fill="#5C5C60" d="M168.748,14.942c0-0.856-0.017-1.558-0.068-2.243h1.336l0.085,1.37h0.034
			c0.411-0.788,1.37-1.558,2.74-1.558c1.147,0,2.928,0.685,2.928,3.527v4.948h-1.507v-4.777c0-1.336-0.496-2.449-1.918-2.449
			c-0.993,0-1.763,0.702-2.02,1.541c-0.068,0.188-0.103,0.445-0.103,0.702v4.982h-1.507V14.942z"/>
		<path fill="#5C5C60" d="M179.999,10.319v2.38h2.157v1.147h-2.157v4.469c0,1.027,0.291,1.609,1.13,1.609
			c0.394,0,0.685-0.052,0.873-0.103l0.068,1.13c-0.291,0.12-0.753,0.205-1.336,0.205c-0.702,0-1.267-0.222-1.626-0.633
			c-0.429-0.446-0.583-1.182-0.583-2.158v-4.52h-1.284v-1.147h1.284v-1.986L179.999,10.319z"/>
		<path fill="#5C5C60" d="M184.588,17.117c0.035,2.038,1.336,2.877,2.843,2.877c1.079,0,1.729-0.189,2.295-0.428l0.256,1.079
			c-0.53,0.24-1.438,0.514-2.757,0.514c-2.551,0-4.075-1.678-4.075-4.178s1.472-4.469,3.886-4.469c2.706,0,3.424,2.38,3.424,3.904
			c0,0.308-0.034,0.548-0.051,0.702H184.588z M189.006,16.038c0.017-0.959-0.394-2.448-2.089-2.448
			c-1.524,0-2.192,1.404-2.311,2.448H189.006z"/>
	</g>
</g>
</svg>
