<?xml version="1.0" encoding="utf-8"?>
<!-- Generator: Adobe Illustrator 17.0.0, SVG Export Plug-In . SVG Version: 6.00 Build 0)  -->
<!DOCTYPE svg PUBLIC "-//W3C//DTD SVG 1.1//EN" "http://www.w3.org/Graphics/SVG/1.1/DTD/svg11.dtd">
<svg version="1.1" xmlns="http://www.w3.org/2000/svg" xmlns:xlink="http://www.w3.org/1999/xlink" x="0px" y="0px" width="300px"
	 height="300px" viewBox="0 0 300 300" enable-background="new 0 0 300 300" xml:space="preserve">
<g id="Capa_1">
	<g id="Capa_1_1_">
		<g>
			<g>
				<rect x="54.03" y="197.142" fill="#FFFFFF" width="197.084" height="4.03"/>
				<rect x="191.057" y="193.917" fill="#FFFFFF" width="4.569" height="9.941"/>
				<rect x="43.046" y="194.352" fill="#FFFFFF" width="2.861" height="9.608"/>
				<rect x="48.502" y="194.352" fill="#FFFFFF" width="2.862" height="9.608"/>
			</g>
		</g>
		<g>
			<rect fill="#E17A1D" width="300" height="300"/>
		</g>
	</g>
</g>
<g id="Capa_2">
	<g>
		<g>
			
				<rect x="88.681" y="43.205" transform="matrix(-0.956 0.2934 -0.2934 -0.956 331.894 212.6031)" fill-rule="evenodd" clip-rule="evenodd" fill="#B41C14" width="122.637" height="175.982"/>
			<polygon fill-rule="evenodd" clip-rule="evenodd" fill="#CACACA" points="105.765,63.285 149.323,49.916 150.364,54.739 
				106.804,68.109 			"/>
			<path fill-rule="evenodd" clip-rule="evenodd" fill="#4D7F83" d="M100.183,56.994l15.388-4.722l-7.505-24.449
				c-1.414-4.607,1.199-9.534,5.807-10.948v-0.001c4.608-1.413,9.534,1.2,10.948,5.806l7.504,24.448l15.388-4.722
				c2.633-0.808,5.448,0.686,6.256,3.318l3.465,11.283l-57.104,17.527l-3.463-11.284C96.056,60.617,97.549,57.802,100.183,56.994
				L100.183,56.994z M115.261,21.401c-2.126,0.653-3.321,2.906-2.668,5.033c0.653,2.125,2.905,3.32,5.032,2.667
				c2.126-0.652,3.321-2.905,2.667-5.031C119.639,21.943,117.388,20.749,115.261,21.401z"/>
		</g>
		<g>
			
				<rect x="95.006" y="54.997" transform="matrix(-0.956 0.2934 -0.2934 -0.956 334.3867 217.8078)" fill-rule="evenodd" clip-rule="evenodd" fill="#FFFFFF" width="111.7" height="157.976"/>
			<g>
				<g>
					
						<rect x="119.851" y="81.996" transform="matrix(-0.956 0.2934 -0.2934 -0.956 311.3917 120.2908)" fill-rule="evenodd" clip-rule="evenodd" fill="#CACACA" width="53.644" height="3.013"/>
					
						<rect x="121.399" y="87.037" transform="matrix(-0.956 0.2934 -0.2934 -0.956 315.8983 129.6966)" fill-rule="evenodd" clip-rule="evenodd" fill="#CACACA" width="53.643" height="3.014"/>
					
						<rect x="123.573" y="96.261" transform="matrix(-0.956 0.2935 -0.2935 -0.956 294.9832 151.2798)" fill-rule="evenodd" clip-rule="evenodd" fill="#CACACA" width="25.14" height="3.013"/>
				</g>
				<path fill="#CACACA" d="M101.924,95.662l11.135-3.418l0.915-0.28l0.28,0.914l3.418,11.136l0.28,0.914l-0.915,0.281
					l-11.136,3.418l-0.914,0.281l-0.281-0.915l-3.418-11.135l-0.281-0.915L101.924,95.662L101.924,95.662z M112.706,94.354
					L103.4,97.21l2.857,9.307l9.306-2.857L112.706,94.354z"/>
				<path fill="#3F6B6F" d="M112.141,84.084c0.577-0.663,1.583-0.732,2.246-0.155c0.663,0.577,0.733,1.583,0.155,2.245
					c-0.904,1.042-2.383,4.248-3.203,7.745c-0.567,2.415-0.791,4.898-0.226,6.737c0.258,0.842-0.215,1.734-1.057,1.993
					c-0.728,0.223-1.493-0.1-1.855-0.736c-2.886-4.248-4.249-5.417-6.155-7.049c-0.916-0.785-1.95-1.671-3.285-2.982
					c-0.625-0.618-0.631-1.625-0.013-2.25c0.618-0.625,1.625-0.631,2.25-0.013c1.281,1.258,2.257,2.094,3.123,2.836
					c1.259,1.079,2.303,1.973,3.617,3.519c0.11-0.928,0.281-1.864,0.497-2.783C109.169,89.217,110.988,85.414,112.141,84.084z"/>
				<g>
					
						<rect x="129.313" y="112.822" transform="matrix(-0.956 0.2934 -0.2934 -0.956 338.9452 177.8096)" fill-rule="evenodd" clip-rule="evenodd" fill="#CACACA" width="53.643" height="3.014"/>
					
						<rect x="130.861" y="117.864" transform="matrix(-0.956 0.2934 -0.2934 -0.956 343.4519 187.2166)" fill-rule="evenodd" clip-rule="evenodd" fill="#CACACA" width="53.644" height="3.014"/>
					
						<rect x="133.036" y="127.088" transform="matrix(-0.956 0.2935 -0.2935 -0.956 322.5378 208.798)" fill-rule="evenodd" clip-rule="evenodd" fill="#CACACA" width="25.14" height="3.013"/>
				</g>
				<path fill="#CACACA" d="M111.386,126.488l11.136-3.418l0.915-0.281l0.281,0.915l3.418,11.135l0.281,0.914l-0.915,0.281
					l-11.135,3.418l-0.915,0.281l-0.28-0.915l-3.418-11.136l-0.28-0.914L111.386,126.488L111.386,126.488z M122.168,125.18
					l-9.306,2.856l2.856,9.306l9.307-2.856L122.168,125.18z"/>
				<path fill="#3F6B6F" d="M121.604,114.911c0.577-0.662,1.583-0.732,2.246-0.155c0.662,0.577,0.732,1.583,0.155,2.246
					c-0.904,1.042-2.383,4.248-3.203,7.744c-0.567,2.415-0.791,4.898-0.226,6.737c0.258,0.841-0.215,1.734-1.056,1.992
					c-0.728,0.224-1.494-0.1-1.855-0.736c-2.886-4.248-4.25-5.417-6.155-7.048c-0.917-0.786-1.95-1.671-3.285-2.982
					c-0.625-0.618-0.631-1.625-0.013-2.251c0.618-0.625,1.625-0.631,2.25-0.013c1.281,1.258,2.257,2.094,3.123,2.836
					c1.259,1.079,2.303,1.973,3.617,3.519c0.11-0.928,0.282-1.864,0.497-2.782C118.63,120.044,120.45,116.241,121.604,114.911z"/>
				<g>
					
						<rect x="138.775" y="143.649" transform="matrix(-0.956 0.2934 -0.2934 -0.956 366.4989 235.3295)" fill-rule="evenodd" clip-rule="evenodd" fill="#CACACA" width="53.644" height="3.014"/>
					
						<rect x="140.323" y="148.691" transform="matrix(-0.956 0.2934 -0.2934 -0.956 371.0056 244.7371)" fill-rule="evenodd" clip-rule="evenodd" fill="#CACACA" width="53.643" height="3.013"/>
					
						<rect x="142.497" y="157.915" transform="matrix(-0.956 0.2934 -0.2934 -0.956 350.0873 266.325)" fill-rule="evenodd" clip-rule="evenodd" fill="#CACACA" width="25.141" height="3.013"/>
				</g>
				<path fill="#CACACA" d="M120.848,157.316l11.136-3.418l0.914-0.28l0.281,0.914l3.418,11.135l0.28,0.915l-0.915,0.28
					l-11.136,3.418l-0.914,0.28l-0.281-0.914l-3.417-11.135l-0.281-0.915L120.848,157.316L120.848,157.316z M131.631,156.008
					l-9.306,2.856l2.856,9.306l9.306-2.857L131.631,156.008z"/>
				<path fill="#3F6B6F" d="M131.066,145.738c0.577-0.663,1.583-0.733,2.245-0.155c0.663,0.577,0.733,1.582,0.155,2.245
					c-0.904,1.042-2.383,4.248-3.204,7.745c-0.566,2.415-0.791,4.898-0.226,6.737c0.258,0.842-0.214,1.734-1.056,1.993
					c-0.728,0.223-1.494-0.101-1.854-0.737c-2.886-4.248-4.25-5.417-6.155-7.049c-0.917-0.785-1.95-1.671-3.285-2.982
					c-0.624-0.617-0.63-1.625-0.013-2.249c0.617-0.625,1.625-0.631,2.25-0.013c1.28,1.258,2.257,2.095,3.123,2.836
					c1.259,1.079,2.303,1.973,3.617,3.519c0.11-0.928,0.282-1.864,0.497-2.783C128.093,150.871,129.912,147.068,131.066,145.738z"/>
				<g>
					
						<rect x="148.238" y="174.476" transform="matrix(-0.956 0.2934 -0.2934 -0.956 394.0524 292.8501)" fill-rule="evenodd" clip-rule="evenodd" fill="#CACACA" width="53.643" height="3.014"/>
					
						<rect x="149.785" y="179.518" transform="matrix(-0.956 0.2934 -0.2934 -0.956 398.5583 302.2575)" fill-rule="evenodd" clip-rule="evenodd" fill="#CACACA" width="53.644" height="3.013"/>
					
						<rect x="151.96" y="188.742" transform="matrix(-0.956 0.2935 -0.2935 -0.956 377.6451 323.8393)" fill-rule="evenodd" clip-rule="evenodd" fill="#CACACA" width="25.14" height="3.013"/>
				</g>
				<path fill="#CACACA" d="M130.31,188.142l11.136-3.418l0.915-0.28l0.281,0.915l3.418,11.136l0.281,0.914l-0.915,0.281
					l-11.135,3.418l-0.915,0.281l-0.28-0.915l-3.418-11.135l-0.28-0.915L130.31,188.142L130.31,188.142z M141.093,186.834
					l-9.306,2.856l2.856,9.307l9.306-2.857L141.093,186.834z"/>
				<path fill="#3F6B6F" d="M140.528,176.565c0.578-0.662,1.583-0.732,2.246-0.155c0.663,0.577,0.732,1.583,0.155,2.245
					c-0.904,1.042-2.383,4.248-3.204,7.745c-0.567,2.415-0.791,4.898-0.226,6.737c0.258,0.842-0.216,1.734-1.057,1.993
					c-0.728,0.223-1.493-0.1-1.855-0.736c-2.886-4.248-4.25-5.417-6.155-7.049c-0.917-0.785-1.95-1.671-3.285-2.982
					c-0.625-0.617-0.631-1.624-0.013-2.249c0.618-0.625,1.625-0.631,2.249-0.013c1.282,1.258,2.257,2.094,3.123,2.836
					c1.259,1.079,2.303,1.973,3.617,3.519c0.11-0.928,0.281-1.864,0.496-2.783C137.555,181.698,139.374,177.894,140.528,176.565z"/>
			</g>
		</g>
	</g>
	<g>
		<path fill="#FFFFFF" d="M33.622,253.807H48.01c5.216,0,8.54,1.305,10.601,3.366c1.767,1.767,2.692,3.954,2.692,6.983v0.084
			c0,4.291-2.229,7.277-5.806,9.002l6.857,10.013H51.123l-5.553-8.414h-2.104v8.414h-9.844V253.807z M47.715,267.815
			c2.355,0,3.786-1.052,3.786-2.86v-0.084c0-1.894-1.473-2.818-3.744-2.818h-4.291v5.763H47.715z"/>
		<path fill="#FFFFFF" d="M63.706,253.807h25.115v8.077H73.382v2.987H87.77v7.109H73.382v3.197h15.649v8.077H63.706V253.807z"/>
		<path fill="#FFFFFF" d="M91.686,253.807h13.251c7.825,0,13.167,3.492,13.167,10.476v0.084c0,7.109-5.427,10.896-13.377,10.896
			h-3.197v7.993h-9.844V253.807z M104.181,268.236c2.524,0,4.207-1.136,4.207-3.239v-0.084c0-2.146-1.557-3.239-4.165-3.239h-2.692
			v6.563H104.181z"/>
		<path fill="#FFFFFF" d="M119.54,268.615v-0.084c0-8.54,7.025-15.355,16.112-15.355c9.086,0,16.027,6.731,16.027,15.271v0.085
			c0,8.54-7.025,15.354-16.112,15.354C126.481,283.886,119.54,277.155,119.54,268.615z M141.752,268.615v-0.084
			c0-3.492-2.398-6.647-6.184-6.647c-3.744,0-6.1,3.113-6.1,6.563v0.085c0,3.491,2.398,6.646,6.184,6.646
			C139.396,275.178,141.752,272.064,141.752,268.615z"/>
		<path fill="#FFFFFF" d="M154.378,253.807h14.388c5.216,0,8.539,1.305,10.601,3.366c1.768,1.767,2.692,3.954,2.692,6.983v0.084
			c0,4.291-2.229,7.277-5.806,9.002l6.857,10.013h-11.232l-5.553-8.414h-2.104v8.414h-9.844V253.807z M168.471,267.815
			c2.355,0,3.786-1.052,3.786-2.86v-0.084c0-1.894-1.473-2.818-3.744-2.818h-4.291v5.763H168.471z"/>
		<path fill="#FFFFFF" d="M191.992,262.137h-8.666v-8.33h27.176v8.33h-8.666v21.118h-9.844V262.137z"/>
		<path fill="#FFFFFF" d="M212.736,253.807h25.115v8.077h-15.439v2.987H236.8v7.109h-14.388v3.197h15.649v8.077h-25.325V253.807z"/>
		<path fill="#FFFFFF" d="M238.276,278.838l5.259-6.269c3.197,2.44,6.856,3.45,10.307,3.45c1.767,0,2.523-0.463,2.523-1.263v-0.084
			c0-0.842-0.925-1.304-4.08-1.936c-6.604-1.346-12.41-3.239-12.41-9.465v-0.084c0-5.596,4.375-9.929,12.494-9.929
			c5.68,0,9.886,1.347,13.294,4.039l-4.796,6.646c-2.776-2.02-6.101-2.902-8.835-2.902c-1.472,0-2.146,0.505-2.146,1.22v0.084
			c0,0.8,0.8,1.305,3.913,1.894c7.53,1.388,12.578,3.575,12.578,9.507v0.084c0,6.185-5.09,9.971-12.999,9.971
			C247.405,283.802,242.021,282.119,238.276,278.838z"/>
	</g>
</g>
</svg>
