<?xml version="1.0" encoding="utf-8"?>
<!-- Generator: Adobe Illustrator 17.0.0, SVG Export Plug-In . SVG Version: 6.00 Build 0)  -->
<!DOCTYPE svg PUBLIC "-//W3C//DTD SVG 1.1//EN" "http://www.w3.org/Graphics/SVG/1.1/DTD/svg11.dtd">
<svg version="1.1" xmlns="http://www.w3.org/2000/svg" xmlns:xlink="http://www.w3.org/1999/xlink" x="0px" y="0px" width="300px"
	 height="300px" viewBox="0 0 300 300" enable-background="new 0 0 300 300" xml:space="preserve">
<g id="Capa_1">
	<g>
		<rect fill="#0EA573" width="300" height="300"/>
	</g>
</g>
<g id="Capa_2">
</g>
<g id="Capa_3">
	<g>
		<g>
			<path fill="#DA4453" d="M74.431,217.268c-0.004,0-0.004,0-0.004,0c-5.261,0-10.178-2.826-12.827-7.362l-14.566-24.973
				c-0.442-0.754-0.674-1.616-0.674-2.493v-58.727h-5.265c-2.236,0-4.192-1.497-4.775-3.653c-0.583-2.16,0.352-4.439,2.282-5.566
				l167.923-97.966c2.269-1.323,4.848-2.022,7.465-2.022c5.261,0,10.182,2.819,12.827,7.363l39.886,68.37
				c4.131,7.069,1.732,16.175-5.334,20.298L81.898,215.239C79.627,216.565,77.047,217.268,74.431,217.268z"/>
			<g>
				<path opacity="0.1" fill="#080808" enable-background="new    " d="M188.568,51.591c-0.696,2.645,0.884,5.348,3.522,6.044
					c2.638,0.696,5.348-0.884,6.043-3.525c0.696-2.641-0.884-5.348-3.521-6.043C191.966,47.374,189.264,48.95,188.568,51.591z"/>
				<path opacity="0.1" fill="#080808" enable-background="new    " d="M198.539,68.687c-0.696,2.641,0.884,5.348,3.522,6.044
					c2.645,0.692,5.348-0.884,6.044-3.529c0.696-2.641-0.884-5.348-3.522-6.04C201.937,64.466,199.234,66.042,198.539,68.687z"/>
				<path opacity="0.1" fill="#080808" enable-background="new    " d="M208.51,85.778c-0.696,2.641,0.884,5.348,3.522,6.044
					c2.645,0.696,5.348-0.884,6.044-3.526c0.696-2.645-0.884-5.348-3.522-6.044C211.909,81.557,209.206,83.137,208.51,85.778z"/>
				<path opacity="0.1" fill="#080808" enable-background="new    " d="M218.482,102.87c-0.696,2.641,0.884,5.348,3.522,6.044
					c2.645,0.696,5.348-0.884,6.044-3.526c0.695-2.641-0.884-5.348-3.522-6.044C221.881,98.649,219.178,100.228,218.482,102.87z"/>
			</g>
			<path fill="#F6BB42" d="M238.128,95.275c-1.703,0-3.355-0.877-4.283-2.453l-25.19-43.176c-1.377-2.358-0.58-5.388,1.783-6.765
				c2.363-1.377,5.392-0.58,6.769,1.779l25.19,43.176c1.377,2.359,0.58,5.388-1.783,6.765
				C239.832,95.058,238.976,95.275,238.128,95.275z"/>
			<g>
				<path fill="#434A54" d="M117.15,113.711c-1.703,0-3.359-0.877-4.28-2.453c-1.377-2.359-0.58-5.388,1.783-6.765l59.826-34.904
					c2.355-1.377,5.384-0.58,6.761,1.782c1.377,2.359,0.58,5.388-1.775,6.765l-59.826,34.9
					C118.853,113.494,117.998,113.711,117.15,113.711z"/>
				<path fill="#434A54" d="M127.122,130.806c-1.703,0-3.359-0.877-4.28-2.457c-1.373-2.362-0.58-5.387,1.783-6.764l59.826-34.905
					c2.355-1.377,5.384-0.58,6.761,1.783c1.377,2.359,0.58,5.388-1.775,6.765l-59.826,34.904
					C128.825,130.588,127.97,130.806,127.122,130.806z"/>
			</g>
			<path opacity="0.1" fill="#080808" enable-background="new    " d="M253.89,98.533H65.959l-27.357,15.961
				c-1.931,1.127-2.866,3.406-2.282,5.566c0.583,2.156,2.54,3.653,4.775,3.653h5.265v58.727c0,0.877,0.232,1.739,0.674,2.493
				l13.088,22.437h35.267l165.98-96.832c2.159-1.265,3.884-2.993,5.124-4.99C263.869,101.341,259.202,98.533,253.89,98.533z"/>
			<path fill="#ED5564" d="M253.89,108.428H46.11c-8.185,0-14.841,6.66-14.841,14.842v79.157c0,8.181,6.656,14.841,14.841,14.841
				h207.78c8.189,0,14.841-6.66,14.841-14.841V123.27C268.732,115.088,262.079,108.428,253.89,108.428z"/>
			<g>
				<path fill="#DA4453" d="M220.714,129.668c-1.942,1.928-1.942,5.058,0,6.993c1.928,1.935,5.058,1.935,6.993,0
					c1.935-1.935,1.935-5.066,0-6.993C225.773,127.733,222.642,127.733,220.714,129.668z"/>
				<path fill="#DA4453" d="M220.714,149.453c-1.942,1.935-1.942,5.066,0,7.001c1.928,1.928,5.058,1.928,6.993,0
					c1.935-1.935,1.935-5.066,0-7.001C225.773,147.525,222.642,147.525,220.714,149.453z"/>
				<path fill="#DA4453" d="M220.714,169.243c-1.942,1.935-1.942,5.066,0,6.993c1.928,1.935,5.058,1.935,6.993,0
					c1.935-1.928,1.935-5.058,0-6.993C225.773,167.308,222.642,167.308,220.714,169.243z"/>
			</g>
			<path fill="#DA4453" d="M220.714,189.035c-1.942,1.928-1.942,5.058,0,6.993c1.928,1.935,5.058,1.935,6.993,0
				c1.935-1.935,1.935-5.066,0-6.993C225.773,187.099,222.642,187.099,220.714,189.035z"/>
			<path fill="#FFCE54" d="M243.991,193.049c-2.725,0-4.942-2.217-4.942-4.95v-49.988c0-2.732,2.217-4.95,4.942-4.95
				c2.739,0,4.957,2.217,4.957,4.95v49.988C248.948,190.832,246.731,193.049,243.991,193.049z"/>
			<g>
				<path fill="#434A54" d="M130.213,148.003h69.253c2.739,0,4.957-2.217,4.957-4.942c0-2.739-2.217-4.95-4.957-4.95h-69.253
					c-2.732,0-4.949,2.211-4.949,4.95C125.263,145.786,127.481,148.003,130.213,148.003z"/>
				<path fill="#434A54" d="M199.466,157.903h-69.253c-2.732,0-4.949,2.217-4.949,4.941c0,2.739,2.217,4.95,4.949,4.95h69.253
					c2.739,0,4.957-2.211,4.957-4.95C204.423,160.119,202.206,157.903,199.466,157.903z"/>
				<path fill="#434A54" d="M169.784,177.686h-39.571c-2.732,0-4.949,2.217-4.949,4.949c0,2.732,2.217,4.95,4.949,4.95h39.571
					c2.739,0,4.957-2.217,4.957-4.95C174.741,179.903,172.523,177.686,169.784,177.686z"/>
			</g>
			<g opacity="0.8">
				<g>
					<path fill="#FDFDFF" d="M42.744,141.709h12.848l16.766,24.634v-24.634h12.969v44.526H72.357l-16.675-24.448v24.448H42.744
						V141.709z"/>
				</g>
				<g>
					<path fill="#FFFFFF" d="M72.356,186.235v-44.526h22.931c4.252,0,7.502,0.364,9.75,1.093c2.247,0.729,4.059,2.081,5.437,4.055
						c1.377,1.975,2.066,4.379,2.066,7.214c0,2.47-0.527,4.602-1.58,6.393c-1.054,1.792-2.503,3.245-4.346,4.358
						c-1.175,0.709-2.786,1.296-4.832,1.762c1.639,0.548,2.833,1.095,3.582,1.642c0.505,0.365,1.239,1.145,2.2,2.341
						c0.961,1.196,1.604,2.118,1.927,2.766l6.663,12.902h-15.547l-7.355-13.607c-0.932-1.761-1.761-2.905-2.49-3.432
						c-0.993-0.688-2.116-1.033-3.372-1.033h-1.215v18.072H72.356z M86.176,159.75h5.801c0.627,0,1.843-0.202,3.645-0.608
						c0.911-0.182,1.655-0.648,2.232-1.397c0.577-0.749,0.865-1.609,0.865-2.582c0-1.437-0.455-2.541-1.367-3.311
						c-0.911-0.769-2.623-1.154-5.133-1.154h-6.044V159.75z"/>
				</g>
			</g>
			<g opacity="0.9">
				<path fill-rule="evenodd" clip-rule="evenodd" fill="#FCFCFC" d="M77.389,133.737c2.34-0.149,3.478,1.735,2.414,4.213
					c-1.064,2.478-3.836,4.397-6.066,4.289c-2.106-0.102-2.946-1.989-1.989-4.217C72.705,135.794,75.179,133.877,77.389,133.737
					L77.389,133.737z M64.69,136.999c-0.446,6.944,0.745,13.094,8.18,13.039c7.968-0.057,13.911-5.761,20.322-14.776
					c0.665-0.937,1.941-2.64,1.45-2.241c-0.588,0.475-3.644,3.253-8.159,6.476c-4.042,2.888-9.095,4.588-12.638,4.808
					c-2.473,0.148-4.547-0.375-6.297-1.673C65.355,141.001,65.088,138.562,64.69,136.999L64.69,136.999z"/>
				<path fill-rule="evenodd" clip-rule="evenodd" fill="#FCFCFC" d="M60.515,184.599c-2.5-0.976-3.65-4.088-2.698-6.996
					c0.952-2.908,3.727-4.761,6.331-4.101c2.765,0.701,4.267,3.925,3.209,7.16C66.297,183.896,63.17,185.636,60.515,184.599
					L60.515,184.599z M80.828,191.387c1.479-12.804-1.755-23.169-11.653-26.048c-7.822-2.277-13.339,1.491-19.142,8.845
					c-0.566,0.719-1.616,1.978-1.267,1.764c0.422-0.256,2.771-1.975,6.38-3.747c3.603-1.772,8.371-1.853,12.069-0.585
					c2.9,1.002,5.478,2.918,7.746,6.083C78.143,182.147,80.273,187.885,80.828,191.387L80.828,191.387z"/>
				<g>
					<path fill-rule="evenodd" clip-rule="evenodd" fill="#FCFCFC" d="M62.26,139.348c0,0-0.162,18.385-12.391,23.973
						c0,0,4.283,2.288,8.18-2.268C58.048,161.053,67.767,150.605,62.26,139.348z"/>
					
						<ellipse transform="matrix(-0.9153 -0.4027 0.4027 -0.9153 47.284 315.333)" fill-rule="evenodd" clip-rule="evenodd" fill="#FCFCFC" cx="56.79" cy="152.696" rx="1.692" ry="4.493"/>
				</g>
				<g>
					
						<ellipse transform="matrix(0.9763 0.2162 -0.2162 0.9763 37.0149 -16.7925)" fill-rule="evenodd" clip-rule="evenodd" fill="#FCFCFC" cx="95.255" cy="160.774" rx="6.335" ry="7.804"/>
					<path fill-rule="evenodd" clip-rule="evenodd" fill="#FCFCFC" d="M99.589,190.526c-46.535-26.497-0.843-55.123-0.843-55.123
						S69.904,162.169,99.589,190.526z"/>
				</g>
			</g>
		</g>
		<g>
			<path fill="#FFFFFF" d="M30,235.32h18.438l9.57,27.655l9.57-27.655h18.155l-19.985,49.609H49.986L30,235.32z"/>
			<path fill="#FFFFFF" d="M97.918,234.968h16.325l20.761,49.612h-17.875l-2.603-6.615h-17.24l-2.534,6.615H77.157L97.918,234.968z
				 M110.443,266.282l-4.504-11.962l-4.504,11.962H110.443z"/>
			<path fill="#FFFFFF" d="M137.052,235.32h16.467v35.183h23.152v14.075h-39.619V235.32z"/>
			<path fill="#FFFFFF" d="M180.268,235.32h42.012v13.511h-25.827v4.995h24.066v11.894h-24.066v5.348h26.18v13.511h-42.365V235.32z"
				/>
			<path fill="#FFFFFF" d="M222.99,277.189l8.798-10.483c5.348,4.081,11.468,5.771,17.239,5.771c2.957,0,4.222-0.776,4.222-2.113
				v-0.138c0-1.408-1.547-2.184-6.824-3.239c-11.05-2.252-20.761-5.418-20.761-15.834v-0.138c0-9.36,7.317-16.609,20.899-16.609
				c9.501,0,16.539,2.252,22.239,6.756l-8.023,11.118c-4.645-3.378-10.204-4.854-14.778-4.854c-2.463,0-3.589,0.844-3.589,2.04
				v0.141c0,1.338,1.338,2.181,6.544,3.166c12.597,2.322,21.043,5.982,21.043,15.904v0.141c0,10.345-8.516,16.677-21.745,16.677
				C238.262,285.494,229.255,282.677,222.99,277.189z"/>
		</g>
	</g>
</g>
</svg>
